<?xml version="1.0" standalone="no"?><!-- Generator: Gravit.io --><svg xmlns="http://www.w3.org/2000/svg" xmlns:xlink="http://www.w3.org/1999/xlink" style="isolation:isolate" viewBox="0 0 1024 1024" width="1024" height="1024"><defs><clipPath id="_clipPath_0rNrkHgLx13sAWKCgCzRvrOaLwbRVTYl"><rect width="1024" height="1024"/></clipPath></defs><g clip-path="url(#_clipPath_0rNrkHgLx13sAWKCgCzRvrOaLwbRVTYl)"><g><path d=" M 512 422.969 L 657.351 276.764 C 664.515 269.549 667.286 259.06 664.62 249.248 C 661.954 239.436 654.255 231.792 644.424 229.195 C 634.594 226.598 624.124 229.443 616.96 236.658 L 540.444 312.889 L 540.444 94.72 C 540.444 79.011 527.709 66.276 512 66.276 C 496.291 66.276 483.556 79.011 483.556 94.72 L 483.556 312.889 L 407.04 236.658 C 395.965 225.504 377.945 225.44 366.791 236.516 C 355.637 247.591 355.574 265.611 366.649 276.764 L 512 422.969 Z " fill="rgb(43,188,138)"/><path d=" M 512 601.031 L 366.649 747.236 C 355.574 758.389 355.637 776.409 366.791 787.484 C 377.945 798.56 395.965 798.496 407.04 787.342 L 483.556 711.111 L 483.556 929.849 C 483.556 945.558 496.291 958.293 512 958.293 C 527.709 958.293 540.444 945.558 540.444 929.849 L 540.444 711.111 L 616.96 788.196 C 628.035 799.349 646.055 799.413 657.209 788.338 C 668.363 777.263 668.426 759.243 657.351 748.089 L 512 601.031 Z " fill="rgb(43,188,138)"/><path d=" M 820.622 366.649 C 809.469 355.574 791.448 355.637 780.373 366.791 C 769.298 377.945 769.362 395.965 780.516 407.04 L 857.6 483.556 L 638.862 483.556 C 623.153 483.556 610.418 496.291 610.418 512 C 610.418 527.709 623.153 540.444 638.862 540.444 L 857.6 540.444 L 780.516 616.96 C 769.362 628.035 769.298 646.055 780.373 657.209 C 791.448 668.363 809.469 668.426 820.622 657.351 L 967.111 512 L 820.622 366.649 Z " fill="rgb(43,188,138)"/><path d=" M 166.4 540.444 L 385.138 540.444 C 400.847 540.444 413.582 527.709 413.582 512 C 413.582 496.291 400.847 483.556 385.138 483.556 L 166.4 483.556 L 243.484 407.04 C 254.638 395.965 254.702 377.945 243.627 366.791 C 232.552 355.637 214.531 355.574 203.378 366.649 L 56.889 512 L 203.093 657.351 C 214.247 668.426 232.267 668.363 243.342 657.209 C 254.417 646.055 254.354 628.035 243.2 616.96 L 166.4 540.444 Z " fill="rgb(43,188,138)"/><rect x="0" y="0" width="1024" height="1024" transform="matrix(1,0,0,1,0,0)" fill="none"/></g></g></svg>